<?xml version="1.0" encoding="iso-8859-1"?>
<!-- Generator: Adobe Illustrator 19.0.0, SVG Export Plug-In . SVG Version: 6.00 Build 0)  -->
<svg version="1.1" id="Capa_1" xmlns="http://www.w3.org/2000/svg" xmlns:xlink="http://www.w3.org/1999/xlink" x="0px" y="0px"
	 viewBox="0 0 485.877 485.877" style="enable-background:new 0 0 485.877 485.877;" xml:space="preserve">
<g>
	<g>
		<path d="M420.05,150.054V56.013c-0.156-3.645-2.115-6.974-5.224-8.882c-2.967-1.825-6.541-2.39-9.927-1.567l-207.412,82.547
			h-102.4c-19.305,0.381-36.893,11.174-45.976,28.212l-9.404,3.657c-23.809,8.251-39.757,30.704-39.706,55.902
			c-0.15,25.109,15.877,47.463,39.706,55.38l6.269,2.612c4.827,12.496,14.142,22.742,26.122,28.735l27.69,100.31
			c7.428,27.284,35.568,43.38,62.852,35.952c11.005-2.996,20.695-9.581,27.532-18.711c9.482-13.122,12.552-29.816,8.359-45.453
			l-18.808-68.963h17.763l207.412,84.114l3.657,1.045c2.191,0.034,4.352-0.506,6.269-1.567c3.1-1.664,5.087-4.844,5.224-8.359
			v-99.265c36.356-0.001,65.828-29.474,65.827-65.831C485.875,179.526,456.405,150.055,420.05,150.054z M43.887,250.364
			c-13.962-5.587-22.795-19.468-21.943-34.482c-0.852-15.014,7.981-28.895,21.943-34.482V250.364z M173.454,407.099
			c-5.754,7.748-14.907,12.226-24.555,12.016c-13.737-0.42-25.599-9.74-29.257-22.988l-24.555-90.384h63.216l19.853,74.188
			C180.869,389.227,179.134,399.255,173.454,407.099z M190.173,284.845H95.087c-15.846,0.869-29.396-11.273-30.265-27.119
			c-0.039-0.712-0.052-1.425-0.037-2.138v-74.188c-0.586-17.302,12.965-31.804,30.267-32.391c0.012,0,0.023-0.001,0.035-0.001
			h95.086V284.845z M399.152,365.303L211.07,290.07V146.919l188.082-75.233V365.303z M420.05,260.813v-89.861
			c24.815,0.001,44.93,20.118,44.929,44.933C464.977,240.697,444.863,260.812,420.05,260.813z"/>
	</g>
</g>
<g>
</g>
<g>
</g>
<g>
</g>
<g>
</g>
<g>
</g>
<g>
</g>
<g>
</g>
<g>
</g>
<g>
</g>
<g>
</g>
<g>
</g>
<g>
</g>
<g>
</g>
<g>
</g>
<g>
</g>
</svg>
