<svg id="Capa_1" enable-background="new 0 0 512 512" height="512" viewBox="0 0 512 512" width="512" xmlns="http://www.w3.org/2000/svg"><path d="m406.715 0h-301.43c-5.522 0-10 4.478-10 10v265.095c0 30.561 25.039 55.424 55.816 55.424h65.657v19.147c0 22.644-5.125 55.535-14.92 74.587-4.886 9.503-7.138 20.21-6.513 30.964 1.778 30.614 27.362 55.536 58.244 56.735.825.032 1.646.048 2.467.048 15.875 0 30.798-5.984 42.249-17 11.925-11.47 18.491-26.862 18.491-43.344 0-9.146-2.011-17.935-5.978-26.124-10.105-20.863-15.559-54.661-15.559-75.87v-19.144h65.657c30.777 0 55.816-24.863 55.816-55.424v-265.094c.003-5.522-4.475-10-9.997-10zm-10 20v94.224c0 14.68-12.054 26.623-26.869 26.623s-26.869-11.943-26.869-26.623c0-5.522-4.478-10-10-10s-10 4.478-10 10v25.265c0 14.68-12.053 26.623-26.868 26.623s-26.869-11.943-26.869-26.623v-119.489zm-281.43 0h31.408v38.517c0 5.522 4.478 10 10 10s10-4.478 10-10v-38.517h21.862v101.109c0 5.522 4.478 10 10 10s10-4.478 10-10v-101.109h40.684v119.488c0 25.708 21.025 46.623 46.869 46.623 21.744 0 40.076-14.806 45.346-34.815 7.884 5.989 17.729 9.551 28.392 9.551 9.988 0 19.256-3.125 26.869-8.442v90.382h-281.43v-222.787zm281.43 255.095c0 19.533-16.067 35.424-35.816 35.424h-75.657c-5.522 0-10 4.478-10 10v29.144c0 24.021 6.031 60.79 17.559 84.589 2.64 5.448 3.978 11.305 3.978 17.405 0 10.991-4.388 21.266-12.355 28.93-8.088 7.78-18.791 11.808-30.074 11.382-20.712-.805-37.867-17.457-39.055-37.911-.418-7.188 1.08-14.332 4.333-20.659 11.771-22.896 17.133-59.454 17.133-83.731v-29.147c0-5.522-4.478-10-10-10h-75.657c-19.749 0-35.816-15.891-35.816-35.424v-12.309h281.43v12.307z"/></svg>