<svg viewBox="0 0 512 512" xmlns="http://www.w3.org/2000/svg"><path d="m218.472656 130.75c-23.035156 6.914062-43.421875 20.015625-59.207031 37.375h37.777344c5.835937-13.089844 13.007812-25.601562 21.429687-37.375zm0 0"/><path d="m186.269531 198.125h-47.488281c-6.539062 13.195312-10.914062 27.640625-12.664062 42.875h52.859374c1-14.632812 3.453126-28.980469 7.292969-42.875zm0 0"/><path d="m256 131.859375c-10.03125 11.152344-18.578125 23.324219-25.539062 36.265625h51.078124c-6.960937-12.941406-15.507812-25.113281-25.539062-36.265625zm0 0"/><path d="m352.734375 168.125c-15.785156-17.359375-36.171875-30.460938-59.207031-37.375 8.421875 11.773438 15.59375 24.285156 21.429687 37.375zm0 0"/><path d="m217.609375 198.125c-4.503906 13.789062-7.375 28.160156-8.542969 42.875h93.867188c-1.167969-14.714844-4.042969-29.085938-8.542969-42.875zm0 0"/><path d="m178.984375 271h-52.867187c1.75 15.234375 6.125 29.679688 12.664062 42.875h47.484375c-3.839844-13.894531-6.285156-28.242188-7.28125-42.875zm0 0"/><path d="m217.605469 313.875h76.789062c4.496094-13.789062 7.378907-28.15625 8.546875-42.875h-93.878906c1.164062 14.71875 4.046875 29.085938 8.542969 42.875zm0 0"/><path d="m293.558594 381.242188c23.023437-6.917969 43.398437-20.015626 59.175781-37.367188h-37.753906c-5.835938 13.089844-13.003907 25.597656-21.421875 37.367188zm0 0"/><path d="m159.265625 343.875c15.777344 17.351562 36.152344 30.449219 59.175781 37.367188-8.417968-11.769532-15.585937-24.277344-21.421875-37.367188zm0 0"/><path d="m333.023438 241h52.859374c-1.75-15.234375-6.125-29.679688-12.664062-42.875h-47.488281c3.839843 13.894531 6.292969 28.242188 7.292969 42.875zm0 0"/><path d="m445.027344 313.597656 2.632812-8.660156 64.339844-12.339844v-73.195312l-64.339844-12.339844-2.632812-8.660156c-3.707032-12.175782-8.632813-24.058594-14.644532-35.316406l-4.265624-7.992188 36.78125-54.234375-51.757813-51.757813-54.234375 36.78125-7.992188-4.265624c-11.257812-6.011719-23.140624-10.9375-35.316406-14.644532l-8.660156-2.636718-12.339844-64.335938h-73.195312l-12.339844 64.339844-8.660156 2.632812c-12.175782 3.707032-24.058594 8.632813-35.316406 14.644532l-7.992188 4.265624-54.234375-36.78125-51.757813 51.757813 36.78125 54.234375-4.265624 7.992188c-6.011719 11.257812-10.9375 23.140624-14.644532 35.316406l-2.636718 8.660156-64.335938 12.339844v73.195312l64.339844 12.339844 2.632812 8.660156c3.707032 12.175782 8.632813 24.058594 14.644532 35.316406l4.265624 7.992188-36.78125 54.234375 51.757813 51.757813 54.234375-36.78125 7.992188 4.265624c11.257812 6.011719 23.140624 10.9375 35.316406 14.644532l8.660156 2.636718 12.339844 64.335938h73.195312l12.339844-64.339844 8.660156-2.632812c12.175782-3.707032 24.058594-8.632813 35.316406-14.644532l7.992188-4.265624 54.234375 36.78125 51.757813-51.757813-36.78125-54.238281 4.265624-7.988282c6.011719-11.257812 10.9375-23.140624 14.644532-35.316406zm-189.027344 103.148438c-88.636719 0-160.746094-72.109375-160.746094-160.746094s72.109375-160.746094 160.746094-160.746094 160.746094 72.109375 160.746094 160.746094-72.109375 160.746094-160.746094 160.746094zm0 0"/><path d="m325.734375 313.875h47.484375c6.539062-13.195312 10.914062-27.640625 12.664062-42.875h-52.867187c-.996094 14.632812-3.441406 28.980469-7.28125 42.875zm0 0"/><path d="m256 380.160156c10.039062-11.15625 18.597656-23.332031 25.566406-36.285156h-51.128906c6.964844 12.953125 15.523438 25.128906 25.5625 36.285156zm0 0"/></svg>